<?xml version="1.0" standalone="no"?>
<!DOCTYPE svg PUBLIC "-//W3C//DTD SVG 20010904//EN"
 "http://www.w3.org/TR/2001/REC-SVG-20010904/DTD/svg10.dtd">
<svg version="1.0" xmlns="http://www.w3.org/2000/svg"
 width="512.000000pt" height="512.000000pt" viewBox="0 0 512.000000 512.000000"
 preserveAspectRatio="xMidYMid meet">
<metadata>
Created by potrace 1.14, written by Peter Selinger 2001-2017
</metadata>
<g transform="translate(0.000000,512.000000) scale(0.100000,-0.100000)"
fill="#000000" stroke="none">
<path d="M2361 5110 c-176 -15 -469 -71 -561 -109 -17 -7 223 -10 760 -9 l785
0 -60 20 c-243 79 -641 121 -924 98z"/>
<path d="M789 4403 c-427 -410 -695 -949 -770 -1548 -16 -128 -16 -461 0 -585
26 -207 78 -421 147 -609 37 -99 144 -325 188 -396 l25 -40 1 292 c0 339 6
367 89 456 48 52 146 107 191 107 54 0 66 10 84 65 31 99 118 192 226 244 l55
26 1530 0 1530 0 58 -23 c102 -42 206 -155 237 -259 13 -42 28 -53 80 -53 44
0 143 -55 188 -104 85 -92 86 -100 92 -446 l5 -304 62 114 c270 499 369 1092
274 1646 -76 438 -259 845 -533 1182 -74 91 -237 261 -290 304 l-38 30 0 -120
0 -119 88 -5 c105 -6 167 -32 218 -91 59 -70 66 -113 62 -394 -3 -232 -4 -251
-25 -288 -53 -98 -136 -144 -260 -145 l-83 0 0 -198 c0 -145 -4 -214 -15 -257
-32 -123 -136 -227 -258 -259 -56 -15 -182 -17 -1417 -14 l-1355 3 -60 29
c-76 38 -143 105 -181 181 l-29 60 -3 228 -4 227 -81 0 c-124 1 -207 47 -260
145 -21 37 -22 56 -25 288 -4 281 3 324 62 394 51 59 113 85 219 91 l87 5 0
118 c0 66 -2 119 -5 119 -2 0 -50 -44 -106 -97z"/>
<path d="M1935 4276 c-217 -95 -155 -416 80 -416 193 0 289 241 149 372 -58
54 -160 74 -229 44z"/>
<path d="M3020 4275 c-143 -64 -176 -250 -63 -357 88 -84 234 -75 311 18 84
101 61 248 -49 321 -51 34 -145 42 -199 18z"/>
<path d="M1422 1858 c-17 -17 -17 -779 0 -796 17 -17 2259 -17 2276 0 17 17
17 779 0 796 -17 17 -2259 17 -2276 0z m526 -174 c106 -34 172 -125 172 -237
0 -68 -16 -110 -61 -162 -99 -112 -273 -111 -370 4 -116 134 -51 351 118 397
64 17 82 17 141 -2z m722 -14 c88 -45 150 -161 135 -253 -22 -135 -139 -228
-272 -214 -205 21 -292 264 -149 415 74 80 190 101 286 52z m692 -7 c184 -100
163 -365 -35 -448 -79 -33 -175 -13 -247 52 -57 51 -82 107 -82 185 0 186 198
301 364 211z"/>
</g>
</svg>
